# xmcd
#
# Track frame offsets: 
#        300
#        26356
#        48021
#        70489
#        93505
#        114199
#        136955
#        157251
#        178658
#        201396
#
# Disc length: 2964 seconds
#
# Revision: 3
# Processed by: cddbd v1.5.2PL0 Copyright (c) Steve Scherf et al.
# Submitted via: ExactAudioCopy v1.0b1
#
DISCID=890b900a
DTITLE=Bobby 'Blue' Bland - Years Of Tears
DYEAR=1993
DGENRE=Blues
TTITLE0=Somewhere Between Right And Wrong
TTITLE1=There's A Stranger In My House
TTITLE2=Hole In The Wall
TTITLE3=Years Of Tears To Go
TTITLE4=Hurtin' Time Again
TTITLE5=I Just Tripped On A Piece Of Your Broken Heart
TTITLE6=Sweet Lady Love
TTITLE7=Love Of Mine
TTITLE8=I've Got To Have Your Love Tonight
TTITLE9=You Put The Hurt On A Hurtin' Man
EXTD=
EXTT0=
EXTT1=
EXTT2=
EXTT3=
EXTT4=
EXTT5=
EXTT6=
EXTT7=
EXTT8=
EXTT9=
PLAYORDER=
